<mxfile host="app.diagrams.net" agent="Mozilla/5.0 (Windows NT 10.0; Win64; x64) AppleWebKit/537.36 (KHTML, like Gecko) Chrome/137.0.0.0 Safari/537.36" version="27.1.4">
  <diagram id="C5RBs43oDa-KdzZeNtuy" name="Page-1">
    <mxGraphModel dx="1188" dy="659" grid="1" gridSize="10" guides="1" tooltips="1" connect="1" arrows="1" fold="1" page="1" pageScale="1" pageWidth="827" pageHeight="1169" math="0" shadow="0">
      <root>
        <mxCell id="WIyWlLk6GJQsqaUBKTNV-0" />
        <mxCell id="WIyWlLk6GJQsqaUBKTNV-1" parent="WIyWlLk6GJQsqaUBKTNV-0" />
        <mxCell id="oJPnfznHVFl8mpxEo0FU-79" value="" style="rounded=1;whiteSpace=wrap;html=1;dashed=1;strokeColor=#B3B3B3;strokeWidth=2;" parent="WIyWlLk6GJQsqaUBKTNV-1" vertex="1">
          <mxGeometry x="200" y="1300" width="141.5" height="590" as="geometry" />
        </mxCell>
        <mxCell id="oJPnfznHVFl8mpxEo0FU-6" value="" style="group;dashed=1;fillColor=#dae8fc;strokeColor=#6c8ebf;opacity=0;" parent="WIyWlLk6GJQsqaUBKTNV-1" vertex="1" connectable="0">
          <mxGeometry x="70" y="20" width="630" height="382.76" as="geometry" />
        </mxCell>
        <mxCell id="oJPnfznHVFl8mpxEo0FU-4" value="&lt;font style=&quot;font-size: 28px;&quot;&gt;1 数据处理&lt;/font&gt;" style="rounded=1;whiteSpace=wrap;html=1;fillColor=#dae8fc;strokeColor=#6c8ebf;verticalAlign=top;dashed=1;opacity=50;dashPattern=8 8;" parent="oJPnfznHVFl8mpxEo0FU-6" vertex="1">
          <mxGeometry x="-9.83" width="639.83" height="310" as="geometry" />
        </mxCell>
        <mxCell id="oJPnfznHVFl8mpxEo0FU-9" value="" style="shape=cross;whiteSpace=wrap;html=1;fillColor=#7EA6E0;strokeColor=#6c8ebf;" parent="oJPnfznHVFl8mpxEo0FU-6" vertex="1">
          <mxGeometry x="273.6027118644068" y="145.34" width="29.491525423728817" height="30" as="geometry" />
        </mxCell>
        <mxCell id="oJPnfznHVFl8mpxEo0FU-14" value="" style="shape=singleArrow;direction=south;whiteSpace=wrap;html=1;strokeColor=#56517e;fillColor=#d0cee2;" parent="oJPnfznHVFl8mpxEo0FU-6" vertex="1">
          <mxGeometry x="109.9977966101695" y="317" width="114.70237288135594" height="60" as="geometry" />
        </mxCell>
        <mxCell id="oJPnfznHVFl8mpxEo0FU-18" value="&lt;div&gt;&lt;font style=&quot;font-size: 22px;&quot;&gt;基础水文数据&lt;/font&gt;&lt;/div&gt;&lt;div&gt;&lt;ul&gt;&lt;li style=&quot;text-align: left;&quot;&gt;&lt;font style=&quot;font-size: 15px;&quot;&gt;DEM数据&lt;/font&gt;&lt;/li&gt;&lt;li style=&quot;text-align: left;&quot;&gt;&lt;font style=&quot;font-size: 15px;&quot;&gt;坡度数据&lt;/font&gt;&lt;/li&gt;&lt;li style=&quot;text-align: left;&quot;&gt;&lt;font style=&quot;font-size: 15px;&quot;&gt;流向数据&lt;/font&gt;&lt;/li&gt;&lt;li style=&quot;text-align: left;&quot;&gt;&lt;font style=&quot;font-size: 15px;&quot;&gt;河流、水库、湖泊数据&lt;/font&gt;&lt;/li&gt;&lt;/ul&gt;&lt;/div&gt;" style="shape=parallelogram;perimeter=parallelogramPerimeter;whiteSpace=wrap;html=1;fixedSize=1;fillColor=#dae8fc;strokeColor=#6c8ebf;" parent="oJPnfznHVFl8mpxEo0FU-6" vertex="1">
          <mxGeometry x="19.995762711864415" y="73.01" width="244.83864406779662" height="174.66" as="geometry" />
        </mxCell>
        <mxCell id="oJPnfznHVFl8mpxEo0FU-17" value="&lt;div&gt;&lt;font style=&quot;font-size: 22px;&quot;&gt;驱动因子数据&lt;/font&gt;&lt;/div&gt;&lt;ul style=&quot;text-align: left;&quot;&gt;&lt;li&gt;&lt;font style=&quot;font-size: 15px;&quot;&gt;气候数据：1900-2020&lt;/font&gt;&lt;/li&gt;&lt;li&gt;&lt;font style=&quot;font-size: 15px;&quot;&gt;土地利用数据：1900-2020&lt;/font&gt;&lt;/li&gt;&lt;li&gt;&lt;font style=&quot;font-size: 15px;&quot;&gt;氮输入数据：1900-2020&lt;/font&gt;&lt;/li&gt;&lt;li&gt;&lt;font style=&quot;font-size: 15px;&quot;&gt;社会经济数据：1900-2020&lt;/font&gt;&lt;/li&gt;&lt;/ul&gt;" style="shape=parallelogram;perimeter=parallelogramPerimeter;whiteSpace=wrap;html=1;fixedSize=1;fillColor=#dae8fc;strokeColor=#6c8ebf;" parent="oJPnfznHVFl8mpxEo0FU-6" vertex="1">
          <mxGeometry x="303.09" y="67.67" width="265.4237288135593" height="174.66" as="geometry" />
        </mxCell>
        <mxCell id="oJPnfznHVFl8mpxEo0FU-0" value="&lt;div style=&quot;text-align: center;&quot;&gt;&lt;font style=&quot;font-size: 22px;&quot;&gt;驱动因子数据&lt;/font&gt;&lt;/div&gt;&lt;ul&gt;&lt;li style=&quot;&quot;&gt;&lt;font style=&quot;font-size: 15px;&quot;&gt;气候数据：1900-2020&lt;/font&gt;&lt;/li&gt;&lt;li&gt;&lt;font style=&quot;font-size: 15px;&quot;&gt;土地利用数据：1900-2020&lt;/font&gt;&lt;/li&gt;&lt;li style=&quot;&quot;&gt;&lt;font style=&quot;font-size: 15px;&quot;&gt;氮输入数据：1900-2020&lt;/font&gt;&lt;/li&gt;&lt;li style=&quot;&quot;&gt;&lt;font style=&quot;font-size: 15px;&quot;&gt;社会经济数据：1900-2020&lt;/font&gt;&lt;/li&gt;&lt;/ul&gt;" style="rounded=1;whiteSpace=wrap;html=1;align=left;fillColor=#d5e8d4;strokeColor=#82b366;movable=1;resizable=1;rotatable=1;deletable=1;editable=1;locked=0;connectable=1;" parent="WIyWlLk6GJQsqaUBKTNV-1" vertex="1">
          <mxGeometry x="1000.0047169811321" y="68.10827586206896" width="259.4339622641509" height="213.79310344827584" as="geometry" />
        </mxCell>
        <mxCell id="oJPnfznHVFl8mpxEo0FU-2" value="&lt;div style=&quot;&quot;&gt;&lt;font style=&quot;font-size: 22px;&quot;&gt;基础水文数据&lt;/font&gt;&lt;/div&gt;&lt;div style=&quot;&quot;&gt;&lt;ul&gt;&lt;li style=&quot;text-align: left;&quot;&gt;&lt;font style=&quot;font-size: 15px;&quot;&gt;DEM数据&lt;/font&gt;&lt;/li&gt;&lt;li style=&quot;text-align: left;&quot;&gt;&lt;font style=&quot;font-size: 15px;&quot;&gt;坡度数据&lt;/font&gt;&lt;/li&gt;&lt;li style=&quot;text-align: left;&quot;&gt;&lt;font style=&quot;font-size: 15px;&quot;&gt;流向数据&lt;/font&gt;&lt;/li&gt;&lt;li style=&quot;text-align: left;&quot;&gt;&lt;font style=&quot;font-size: 15px;&quot;&gt;河流、水库、湖泊数据&lt;/font&gt;&lt;/li&gt;&lt;/ul&gt;&lt;/div&gt;" style="rounded=1;whiteSpace=wrap;html=1;align=center;fillColor=#d5e8d4;strokeColor=#82b366;" parent="WIyWlLk6GJQsqaUBKTNV-1" vertex="1">
          <mxGeometry x="1023.0007547169812" y="269.99827586206897" width="217.9245283018868" height="213.79310344827584" as="geometry" />
        </mxCell>
        <mxCell id="oJPnfznHVFl8mpxEo0FU-35" value="" style="group" parent="WIyWlLk6GJQsqaUBKTNV-1" vertex="1" connectable="0">
          <mxGeometry x="20" y="402.76" width="490" height="350" as="geometry" />
        </mxCell>
        <mxCell id="oJPnfznHVFl8mpxEo0FU-3" value="" style="rounded=1;whiteSpace=wrap;html=1;fillColor=#fff2cc;strokeColor=#d6b656;opacity=50;dashed=1;dashPattern=8 8;" parent="oJPnfznHVFl8mpxEo0FU-35" vertex="1">
          <mxGeometry x="44.54545454545455" width="409.8181818181818" height="350" as="geometry" />
        </mxCell>
        <mxCell id="oJPnfznHVFl8mpxEo0FU-36" value="" style="group" parent="oJPnfznHVFl8mpxEo0FU-35" vertex="1" connectable="0">
          <mxGeometry x="71.27272727272727" y="52.24" width="356.3636363636364" height="260" as="geometry" />
        </mxCell>
        <mxCell id="oJPnfznHVFl8mpxEo0FU-21" value="&lt;font style=&quot;font-size: 15px;&quot;&gt;率定参数&lt;/font&gt;" style="rounded=1;whiteSpace=wrap;html=1;fillColor=#fff2cc;strokeColor=#d6b656;" parent="oJPnfznHVFl8mpxEo0FU-36" vertex="1">
          <mxGeometry x="9.561696884351349" y="210" width="89.61290425821318" height="50" as="geometry" />
        </mxCell>
        <mxCell id="oJPnfznHVFl8mpxEo0FU-25" value="" style="shape=singleArrow;direction=west;whiteSpace=wrap;html=1;fillColor=#fff2cc;strokeColor=#d6b656;" parent="oJPnfznHVFl8mpxEo0FU-36" vertex="1">
          <mxGeometry x="120.68169816453569" y="30" width="35.84516170328528" height="30" as="geometry" />
        </mxCell>
        <mxCell id="oJPnfznHVFl8mpxEo0FU-26" value="&lt;font style=&quot;font-size: 15px;&quot;&gt;是否达到要求&lt;/font&gt;" style="html=1;whiteSpace=wrap;aspect=fixed;shape=isoRectangle;fillColor=#fff2cc;strokeColor=#d6b656;" parent="oJPnfznHVFl8mpxEo0FU-36" vertex="1">
          <mxGeometry y="106" width="103.58041958041959" height="62.146549103070846" as="geometry" />
        </mxCell>
        <mxCell id="oJPnfznHVFl8mpxEo0FU-27" value="" style="group" parent="oJPnfznHVFl8mpxEo0FU-36" vertex="1" connectable="0">
          <mxGeometry x="171.7578947368421" y="5" width="175.22775119617225" height="250" as="geometry" />
        </mxCell>
        <mxCell id="oJPnfznHVFl8mpxEo0FU-22" value="" style="rounded=1;whiteSpace=wrap;html=1;fillColor=#fff2cc;strokeColor=#d6b656;textDirection=vertical-lr;" parent="oJPnfznHVFl8mpxEo0FU-27" vertex="1">
          <mxGeometry x="5.103720908626376" width="170.12403028754588" height="250.00000000000003" as="geometry" />
        </mxCell>
        <mxCell id="oJPnfznHVFl8mpxEo0FU-19" value="&lt;font style=&quot;font-size: 15px;&quot;&gt;平衡态模拟&lt;/font&gt;" style="rounded=1;whiteSpace=wrap;html=1;fillColor=#fff2cc;strokeColor=#d6b656;" parent="oJPnfznHVFl8mpxEo0FU-27" vertex="1">
          <mxGeometry x="47.63472848051285" y="29.411764705882355" width="85.06201514377294" height="73.52941176470588" as="geometry" />
        </mxCell>
        <mxCell id="oJPnfznHVFl8mpxEo0FU-20" value="&lt;font style=&quot;font-size: 15px;&quot;&gt;过渡态模拟&lt;/font&gt;" style="rounded=1;whiteSpace=wrap;html=1;fillColor=#fff2cc;strokeColor=#d6b656;" parent="oJPnfznHVFl8mpxEo0FU-27" vertex="1">
          <mxGeometry x="47.63472848051285" y="161.76470588235296" width="85.06201514377294" height="73.52941176470588" as="geometry" />
        </mxCell>
        <mxCell id="oJPnfznHVFl8mpxEo0FU-24" value="" style="shape=singleArrow;direction=south;whiteSpace=wrap;html=1;fillColor=#fff2cc;strokeColor=#d6b656;" parent="oJPnfznHVFl8mpxEo0FU-27" vertex="1">
          <mxGeometry x="78.2570539322711" y="114.70588235294119" width="25.518604543131882" height="36.76470588235294" as="geometry" />
        </mxCell>
        <mxCell id="oJPnfznHVFl8mpxEo0FU-28" value="&lt;span style=&quot;font-size: 15px;&quot;&gt;评定率定结果&lt;/span&gt;" style="rounded=1;whiteSpace=wrap;html=1;fillColor=#fff2cc;strokeColor=#d6b656;" parent="oJPnfznHVFl8mpxEo0FU-36" vertex="1">
          <mxGeometry x="1.4965355011121615" y="15" width="107.53548510985581" height="60" as="geometry" />
        </mxCell>
        <mxCell id="oJPnfznHVFl8mpxEo0FU-29" value="" style="shape=singleArrow;direction=south;whiteSpace=wrap;html=1;fillColor=#fff2cc;strokeColor=#d6b656;" parent="oJPnfznHVFl8mpxEo0FU-36" vertex="1">
          <mxGeometry x="40.92621337472596" y="78" width="26.883871277463953" height="25" as="geometry" />
        </mxCell>
        <mxCell id="oJPnfznHVFl8mpxEo0FU-30" value="" style="shape=singleArrow;whiteSpace=wrap;html=1;fillColor=#fff2cc;strokeColor=#d6b656;" parent="oJPnfznHVFl8mpxEo0FU-36" vertex="1">
          <mxGeometry x="117.99331103678931" y="130" width="35.84516170328528" height="29" as="geometry" />
        </mxCell>
        <mxCell id="oJPnfznHVFl8mpxEo0FU-32" value="&lt;font style=&quot;font-size: 15px;&quot;&gt;是&lt;/font&gt;" style="text;html=1;align=center;verticalAlign=middle;whiteSpace=wrap;rounded=0;" parent="oJPnfznHVFl8mpxEo0FU-36" vertex="1">
          <mxGeometry x="109.03202061096799" y="112" width="53.767742554927906" height="30" as="geometry" />
        </mxCell>
        <mxCell id="oJPnfznHVFl8mpxEo0FU-33" value="" style="shape=singleArrow;direction=south;whiteSpace=wrap;html=1;fillColor=#fff2cc;strokeColor=#d6b656;" parent="oJPnfznHVFl8mpxEo0FU-36" vertex="1">
          <mxGeometry x="40.92621337472596" y="179" width="26.883871277463953" height="25" as="geometry" />
        </mxCell>
        <mxCell id="oJPnfznHVFl8mpxEo0FU-34" value="&lt;font style=&quot;font-size: 15px;&quot;&gt;否&lt;/font&gt;" style="text;html=1;align=center;verticalAlign=middle;whiteSpace=wrap;rounded=0;" parent="oJPnfznHVFl8mpxEo0FU-36" vertex="1">
          <mxGeometry x="9.561696884351349" y="174" width="53.767742554927906" height="30" as="geometry" />
        </mxCell>
        <mxCell id="oJPnfznHVFl8mpxEo0FU-37" value="&lt;font style=&quot;font-size: 28px;&quot;&gt;2 模型参数率定&lt;/font&gt;" style="text;html=1;align=center;verticalAlign=middle;whiteSpace=wrap;rounded=0;" parent="oJPnfznHVFl8mpxEo0FU-35" vertex="1">
          <mxGeometry x="139.07" y="17.24" width="211.86" height="30" as="geometry" />
        </mxCell>
        <mxCell id="oJPnfznHVFl8mpxEo0FU-38" value="" style="shape=singleArrow;whiteSpace=wrap;html=1;fillColor=#fff2cc;strokeColor=#d6b656;" parent="oJPnfznHVFl8mpxEo0FU-35" vertex="1">
          <mxGeometry x="187.0909090909091" y="267.24" width="35.63636363636363" height="29" as="geometry" />
        </mxCell>
        <mxCell id="oJPnfznHVFl8mpxEo0FU-40" value="" style="rounded=1;whiteSpace=wrap;html=1;fillColor=#b0e3e6;strokeColor=#0e8088;opacity=50;dashed=1;dashPattern=8 8;" parent="WIyWlLk6GJQsqaUBKTNV-1" vertex="1">
          <mxGeometry x="500" y="402.76" width="190" height="347.24" as="geometry" />
        </mxCell>
        <mxCell id="oJPnfznHVFl8mpxEo0FU-41" value="" style="edgeStyle=orthogonalEdgeStyle;rounded=0;orthogonalLoop=1;jettySize=auto;html=1;" parent="WIyWlLk6GJQsqaUBKTNV-1" source="oJPnfznHVFl8mpxEo0FU-4" target="oJPnfznHVFl8mpxEo0FU-37" edge="1">
          <mxGeometry relative="1" as="geometry" />
        </mxCell>
        <mxCell id="oJPnfznHVFl8mpxEo0FU-67" value="" style="edgeStyle=orthogonalEdgeStyle;rounded=0;orthogonalLoop=1;jettySize=auto;html=1;opacity=0;fillColor=#b1ddf0;strokeColor=#10739e;" parent="WIyWlLk6GJQsqaUBKTNV-1" edge="1">
          <mxGeometry relative="1" as="geometry">
            <mxPoint x="1150" y="1307" as="sourcePoint" />
            <mxPoint x="1150" y="1307" as="targetPoint" />
            <Array as="points">
              <mxPoint x="1170" y="1307" />
            </Array>
          </mxGeometry>
        </mxCell>
        <mxCell id="oJPnfznHVFl8mpxEo0FU-69" value="" style="edgeStyle=orthogonalEdgeStyle;rounded=0;orthogonalLoop=1;jettySize=auto;html=1;shape=flexArrow;" parent="WIyWlLk6GJQsqaUBKTNV-1" source="oJPnfznHVFl8mpxEo0FU-42" target="oJPnfznHVFl8mpxEo0FU-68" edge="1">
          <mxGeometry relative="1" as="geometry" />
        </mxCell>
        <mxCell id="oJPnfznHVFl8mpxEo0FU-42" value="&lt;font style=&quot;font-size: 28px;&quot;&gt;1 数据处理&lt;/font&gt;" style="rounded=1;whiteSpace=wrap;html=1;verticalAlign=top;dashed=1;dashPattern=1 4;fillColor=#f9f7ed;strokeColor=#36393d;" parent="WIyWlLk6GJQsqaUBKTNV-1" vertex="1">
          <mxGeometry x="80" y="800" width="920" height="170" as="geometry" />
        </mxCell>
        <mxCell id="oJPnfznHVFl8mpxEo0FU-50" value="&lt;span style=&quot;font-size: 17px;&quot;&gt;降水&lt;/span&gt;" style="strokeWidth=2;html=1;shape=mxgraph.flowchart.database;whiteSpace=wrap;fillColor=#ffe6cc;strokeColor=#FFB570;verticalAlign=bottom;" parent="WIyWlLk6GJQsqaUBKTNV-1" vertex="1">
          <mxGeometry x="1150" y="700" width="97" height="40" as="geometry" />
        </mxCell>
        <mxCell id="oJPnfznHVFl8mpxEo0FU-51" value="&lt;span style=&quot;font-size: 17px;&quot;&gt;CO&lt;sub&gt;2&lt;/sub&gt;浓度&lt;/span&gt;" style="strokeWidth=2;html=1;shape=mxgraph.flowchart.database;whiteSpace=wrap;fillColor=#ffe6cc;strokeColor=#FFB570;verticalAlign=bottom;" parent="WIyWlLk6GJQsqaUBKTNV-1" vertex="1">
          <mxGeometry x="1070" y="830" width="97" height="40" as="geometry" />
        </mxCell>
        <mxCell id="oJPnfznHVFl8mpxEo0FU-55" value="&lt;span style=&quot;font-size: 17px;&quot;&gt;GDP&lt;/span&gt;" style="strokeWidth=2;html=1;shape=mxgraph.flowchart.database;whiteSpace=wrap;fillColor=#ffe6cc;strokeColor=#FFB570;verticalAlign=bottom;" parent="WIyWlLk6GJQsqaUBKTNV-1" vertex="1">
          <mxGeometry x="1040" y="1030" width="97" height="40" as="geometry" />
        </mxCell>
        <mxCell id="oJPnfznHVFl8mpxEo0FU-60" value="" style="rounded=1;whiteSpace=wrap;html=1;fillColor=#dae8fc;strokeColor=#6c8ebf;dashed=1;opacity=50;container=0;" parent="WIyWlLk6GJQsqaUBKTNV-1" vertex="1">
          <mxGeometry x="1160" y="1197" width="430" height="80" as="geometry" />
        </mxCell>
        <mxCell id="oJPnfznHVFl8mpxEo0FU-61" value="&lt;font style=&quot;font-size: 17px;&quot;&gt;高程&lt;/font&gt;" style="strokeWidth=2;html=1;shape=mxgraph.flowchart.database;whiteSpace=wrap;fillColor=#dae8fc;strokeColor=#6c8ebf;verticalAlign=bottom;container=0;" parent="WIyWlLk6GJQsqaUBKTNV-1" vertex="1">
          <mxGeometry x="1173" y="1227" width="97" height="40" as="geometry" />
        </mxCell>
        <mxCell id="oJPnfznHVFl8mpxEo0FU-62" value="&lt;span style=&quot;font-size: 17px;&quot;&gt;坡度&lt;/span&gt;" style="strokeWidth=2;html=1;shape=mxgraph.flowchart.database;whiteSpace=wrap;fillColor=#dae8fc;strokeColor=#6c8ebf;verticalAlign=bottom;container=0;" parent="WIyWlLk6GJQsqaUBKTNV-1" vertex="1">
          <mxGeometry x="1380" y="1227" width="97" height="40" as="geometry" />
        </mxCell>
        <mxCell id="oJPnfznHVFl8mpxEo0FU-63" value="&lt;span style=&quot;font-size: 17px;&quot;&gt;流向&lt;/span&gt;" style="strokeWidth=2;html=1;shape=mxgraph.flowchart.database;whiteSpace=wrap;fillColor=#dae8fc;strokeColor=#6c8ebf;verticalAlign=bottom;container=0;" parent="WIyWlLk6GJQsqaUBKTNV-1" vertex="1">
          <mxGeometry x="1276.5" y="1227" width="97" height="40" as="geometry" />
        </mxCell>
        <mxCell id="oJPnfznHVFl8mpxEo0FU-64" value="&lt;span style=&quot;font-size: 17px;&quot;&gt;水体数据&lt;/span&gt;" style="strokeWidth=2;html=1;shape=mxgraph.flowchart.database;whiteSpace=wrap;fillColor=#dae8fc;strokeColor=#6c8ebf;verticalAlign=bottom;container=0;" parent="WIyWlLk6GJQsqaUBKTNV-1" vertex="1">
          <mxGeometry x="1484" y="1227" width="97" height="40" as="geometry" />
        </mxCell>
        <mxCell id="oJPnfznHVFl8mpxEo0FU-65" value="&lt;font style=&quot;font-size: 18px;&quot;&gt;基础水文数据&lt;/font&gt;" style="text;html=1;align=center;verticalAlign=middle;whiteSpace=wrap;rounded=0;container=0;" parent="WIyWlLk6GJQsqaUBKTNV-1" vertex="1">
          <mxGeometry x="1310" y="1197" width="130" height="30" as="geometry" />
        </mxCell>
        <mxCell id="oJPnfznHVFl8mpxEo0FU-68" value="" style="whiteSpace=wrap;html=1;verticalAlign=top;fillColor=#f9f7ed;strokeColor=#36393d;rounded=1;dashed=1;dashPattern=1 4;" parent="WIyWlLk6GJQsqaUBKTNV-1" vertex="1">
          <mxGeometry x="80" y="1010" width="920" height="265" as="geometry" />
        </mxCell>
        <mxCell id="oJPnfznHVFl8mpxEo0FU-81" value="&lt;font style=&quot;font-size: 18px;&quot;&gt;&lt;b&gt;数据处理&lt;/b&gt;&lt;/font&gt;" style="text;html=1;align=center;verticalAlign=middle;whiteSpace=wrap;rounded=0;textShadow=0;labelBackgroundColor=#FFFFFF;labelBorderColor=#CCCCCC;" parent="WIyWlLk6GJQsqaUBKTNV-1" vertex="1">
          <mxGeometry x="210" y="1308" width="120" height="32" as="geometry" />
        </mxCell>
        <mxCell id="oJPnfznHVFl8mpxEo0FU-83" value="" style="group" parent="WIyWlLk6GJQsqaUBKTNV-1" vertex="1" connectable="0">
          <mxGeometry x="210.75" y="1620" width="120" height="260" as="geometry" />
        </mxCell>
        <mxCell id="oJPnfznHVFl8mpxEo0FU-44" value="" style="rounded=1;whiteSpace=wrap;html=1;fillColor=#ffe6cc;strokeColor=#d79b00;dashed=1;opacity=50;" parent="oJPnfznHVFl8mpxEo0FU-83" vertex="1">
          <mxGeometry width="120" height="260" as="geometry" />
        </mxCell>
        <mxCell id="oJPnfznHVFl8mpxEo0FU-56" value="&lt;font style=&quot;font-size: 18px;&quot;&gt;驱动因子数据&lt;/font&gt;" style="text;html=1;align=center;verticalAlign=middle;whiteSpace=wrap;rounded=0;" parent="oJPnfznHVFl8mpxEo0FU-83" vertex="1">
          <mxGeometry width="120" height="50" as="geometry" />
        </mxCell>
        <mxCell id="oJPnfznHVFl8mpxEo0FU-47" value="&lt;font style=&quot;font-size: 17px;&quot;&gt;气候&lt;/font&gt;" style="strokeWidth=2;html=1;shape=mxgraph.flowchart.database;whiteSpace=wrap;fillColor=#ffe6cc;strokeColor=#FFB570;verticalAlign=bottom;" parent="oJPnfznHVFl8mpxEo0FU-83" vertex="1">
          <mxGeometry x="11.5" y="50" width="97" height="40" as="geometry" />
        </mxCell>
        <mxCell id="oJPnfznHVFl8mpxEo0FU-53" value="&lt;span style=&quot;font-size: 17px;&quot;&gt;氮输入&lt;/span&gt;" style="strokeWidth=2;html=1;shape=mxgraph.flowchart.database;whiteSpace=wrap;fillColor=#ffe6cc;strokeColor=#FFB570;verticalAlign=bottom;" parent="oJPnfznHVFl8mpxEo0FU-83" vertex="1">
          <mxGeometry x="11.5" y="100" width="97" height="40" as="geometry" />
        </mxCell>
        <mxCell id="oJPnfznHVFl8mpxEo0FU-52" value="&lt;span style=&quot;font-size: 17px;&quot;&gt;土地利用&lt;/span&gt;" style="strokeWidth=2;html=1;shape=mxgraph.flowchart.database;whiteSpace=wrap;fillColor=#ffe6cc;strokeColor=#FFB570;verticalAlign=bottom;" parent="oJPnfznHVFl8mpxEo0FU-83" vertex="1">
          <mxGeometry x="11.5" y="149" width="97" height="40" as="geometry" />
        </mxCell>
        <mxCell id="oJPnfznHVFl8mpxEo0FU-54" value="&lt;span style=&quot;font-size: 17px;&quot;&gt;社会经济&lt;/span&gt;" style="strokeWidth=2;html=1;shape=mxgraph.flowchart.database;whiteSpace=wrap;fillColor=#ffe6cc;strokeColor=#FFB570;verticalAlign=bottom;" parent="oJPnfznHVFl8mpxEo0FU-83" vertex="1">
          <mxGeometry x="11.5" y="200" width="97" height="40" as="geometry" />
        </mxCell>
        <mxCell id="oJPnfznHVFl8mpxEo0FU-84" value="" style="group" parent="WIyWlLk6GJQsqaUBKTNV-1" vertex="1" connectable="0">
          <mxGeometry x="210" y="1350" width="120" height="260" as="geometry" />
        </mxCell>
        <mxCell id="oJPnfznHVFl8mpxEo0FU-72" value="" style="rounded=1;whiteSpace=wrap;html=1;fillColor=#cce5ff;strokeColor=#7EA6E0;dashed=1;opacity=50;" parent="oJPnfznHVFl8mpxEo0FU-84" vertex="1">
          <mxGeometry width="120" height="260" as="geometry" />
        </mxCell>
        <mxCell id="oJPnfznHVFl8mpxEo0FU-74" value="&lt;font style=&quot;font-size: 17px;&quot;&gt;高程&lt;/font&gt;" style="strokeWidth=2;html=1;shape=mxgraph.flowchart.database;whiteSpace=wrap;fillColor=#cce5ff;strokeColor=#7EA6E0;verticalAlign=bottom;" parent="oJPnfznHVFl8mpxEo0FU-84" vertex="1">
          <mxGeometry x="11.5" y="50" width="97" height="40" as="geometry" />
        </mxCell>
        <mxCell id="oJPnfznHVFl8mpxEo0FU-75" value="&lt;span style=&quot;font-size: 17px;&quot;&gt;流向&lt;/span&gt;" style="strokeWidth=2;html=1;shape=mxgraph.flowchart.database;whiteSpace=wrap;fillColor=#cce5ff;strokeColor=#7EA6E0;verticalAlign=bottom;" parent="oJPnfznHVFl8mpxEo0FU-84" vertex="1">
          <mxGeometry x="11.5" y="100" width="97" height="40" as="geometry" />
        </mxCell>
        <mxCell id="oJPnfznHVFl8mpxEo0FU-76" value="&lt;span style=&quot;font-size: 17px;&quot;&gt;坡度&lt;/span&gt;" style="strokeWidth=2;html=1;shape=mxgraph.flowchart.database;whiteSpace=wrap;fillColor=#cce5ff;strokeColor=#7EA6E0;verticalAlign=bottom;" parent="oJPnfznHVFl8mpxEo0FU-84" vertex="1">
          <mxGeometry x="11.5" y="149" width="97" height="40" as="geometry" />
        </mxCell>
        <mxCell id="oJPnfznHVFl8mpxEo0FU-77" value="&lt;span style=&quot;font-size: 17px;&quot;&gt;水体数据&lt;/span&gt;" style="strokeWidth=2;html=1;shape=mxgraph.flowchart.database;whiteSpace=wrap;fillColor=#cce5ff;strokeColor=#7EA6E0;verticalAlign=bottom;" parent="oJPnfznHVFl8mpxEo0FU-84" vertex="1">
          <mxGeometry x="11.5" y="200" width="97" height="40" as="geometry" />
        </mxCell>
        <mxCell id="oJPnfznHVFl8mpxEo0FU-78" value="&lt;font style=&quot;font-size: 18px;&quot;&gt;基础水文数据&lt;/font&gt;" style="text;html=1;align=center;verticalAlign=middle;whiteSpace=wrap;rounded=0;" parent="oJPnfznHVFl8mpxEo0FU-84" vertex="1">
          <mxGeometry width="120" height="50" as="geometry" />
        </mxCell>
        <mxCell id="oJPnfznHVFl8mpxEo0FU-249" value="" style="rounded=1;whiteSpace=wrap;html=1;" parent="WIyWlLk6GJQsqaUBKTNV-1" vertex="1">
          <mxGeometry x="1150" y="1510" width="120" height="60" as="geometry" />
        </mxCell>
        <mxCell id="oJPnfznHVFl8mpxEo0FU-82" value="" style="rounded=1;whiteSpace=wrap;html=1;dashed=1;movable=1;resizable=1;rotatable=1;deletable=1;editable=1;locked=0;connectable=1;fillColor=#FFF6E4;strokeColor=#FFD966;strokeWidth=2;" parent="WIyWlLk6GJQsqaUBKTNV-1" vertex="1">
          <mxGeometry x="402" y="1670" width="386" height="220" as="geometry" />
        </mxCell>
        <mxCell id="oJPnfznHVFl8mpxEo0FU-85" value="&lt;span style=&quot;font-size: 18px;&quot;&gt;&lt;b&gt;因&lt;/b&gt;&lt;/span&gt;&lt;div&gt;&lt;span style=&quot;font-size: 18px;&quot;&gt;&lt;b&gt;子&lt;/b&gt;&lt;/span&gt;&lt;/div&gt;&lt;div&gt;&lt;span style=&quot;font-size: 18px;&quot;&gt;&lt;b&gt;实&lt;/b&gt;&lt;/span&gt;&lt;/div&gt;&lt;div&gt;&lt;span style=&quot;font-size: 18px;&quot;&gt;&lt;b&gt;验&lt;/b&gt;&lt;/span&gt;&lt;/div&gt;&lt;div&gt;&lt;span style=&quot;font-size: 18px;&quot;&gt;&lt;b&gt;分&lt;/b&gt;&lt;/span&gt;&lt;/div&gt;&lt;div&gt;&lt;span style=&quot;font-size: 18px;&quot;&gt;&lt;b&gt;析&lt;/b&gt;&lt;/span&gt;&lt;/div&gt;" style="text;html=1;align=center;verticalAlign=middle;whiteSpace=wrap;rounded=0;textShadow=0;labelBackgroundColor=none;labelBorderColor=#FFD966;movable=1;resizable=1;rotatable=1;deletable=1;editable=1;locked=0;connectable=1;fillColor=#FFFFEB;opacity=0;" parent="WIyWlLk6GJQsqaUBKTNV-1" vertex="1">
          <mxGeometry x="414" y="1726" width="29.49019607843137" height="122" as="geometry" />
        </mxCell>
        <mxCell id="oJPnfznHVFl8mpxEo0FU-199" value="实验方案" style="shape=table;startSize=30;container=1;collapsible=0;childLayout=tableLayout;swimlaneFillColor=none;strokeColor=#FFFFFF;fontSize=18;fillColor=#FFF2CC;labelBackgroundColor=none;opacity=50;rounded=1;swimlaneLine=1;movable=1;resizable=1;rotatable=1;deletable=1;editable=1;locked=0;connectable=1;fontStyle=1" parent="WIyWlLk6GJQsqaUBKTNV-1" vertex="1">
          <mxGeometry x="454" y="1680" width="300" height="180" as="geometry" />
        </mxCell>
        <mxCell id="oJPnfznHVFl8mpxEo0FU-200" value="" style="shape=tableRow;horizontal=0;startSize=0;swimlaneHead=0;swimlaneBody=0;strokeColor=#E1D5E7;top=0;left=0;bottom=0;right=0;collapsible=0;dropTarget=0;fillColor=#FFF2CC;points=[[0,0.5],[1,0.5]];portConstraint=eastwest;swimlaneFillColor=none;fontSize=11;movable=1;resizable=1;rotatable=1;deletable=1;editable=1;locked=0;connectable=1;opacity=50;" parent="oJPnfznHVFl8mpxEo0FU-199" vertex="1">
          <mxGeometry y="30" width="300" height="17" as="geometry" />
        </mxCell>
        <mxCell id="oJPnfznHVFl8mpxEo0FU-201" value="" style="shape=partialRectangle;html=1;whiteSpace=wrap;connectable=1;strokeColor=#E1D5E7;overflow=hidden;fillColor=#FFF2CC;top=0;left=0;bottom=0;right=0;pointerEvents=1;swimlaneFillColor=none;fontSize=11;movable=1;resizable=1;rotatable=1;deletable=1;editable=1;locked=0;opacity=50;" parent="oJPnfznHVFl8mpxEo0FU-200" vertex="1">
          <mxGeometry width="59" height="17" as="geometry">
            <mxRectangle width="59" height="17" as="alternateBounds" />
          </mxGeometry>
        </mxCell>
        <mxCell id="oJPnfznHVFl8mpxEo0FU-202" value="气候" style="shape=partialRectangle;html=1;whiteSpace=wrap;connectable=1;strokeColor=#E1D5E7;overflow=hidden;fillColor=#FFF2CC;top=0;left=0;bottom=0;right=0;pointerEvents=1;swimlaneFillColor=none;fontSize=11;movable=1;resizable=1;rotatable=1;deletable=1;editable=1;locked=0;opacity=50;" parent="oJPnfznHVFl8mpxEo0FU-200" vertex="1">
          <mxGeometry x="59" width="61" height="17" as="geometry">
            <mxRectangle width="61" height="17" as="alternateBounds" />
          </mxGeometry>
        </mxCell>
        <mxCell id="oJPnfznHVFl8mpxEo0FU-203" value="氮输入" style="shape=partialRectangle;html=1;whiteSpace=wrap;connectable=1;strokeColor=#E1D5E7;overflow=hidden;fillColor=#FFF2CC;top=0;left=0;bottom=0;right=0;pointerEvents=1;swimlaneFillColor=none;fontSize=11;movable=1;resizable=1;rotatable=1;deletable=1;editable=1;locked=0;opacity=50;" parent="oJPnfznHVFl8mpxEo0FU-200" vertex="1">
          <mxGeometry x="120" width="58" height="17" as="geometry">
            <mxRectangle width="58" height="17" as="alternateBounds" />
          </mxGeometry>
        </mxCell>
        <mxCell id="oJPnfznHVFl8mpxEo0FU-204" value="土地利用" style="shape=partialRectangle;html=1;whiteSpace=wrap;connectable=1;strokeColor=#E1D5E7;overflow=hidden;fillColor=#FFF2CC;top=0;left=0;bottom=0;right=0;pointerEvents=1;swimlaneFillColor=none;fontSize=11;movable=1;resizable=1;rotatable=1;deletable=1;editable=1;locked=0;opacity=50;" parent="oJPnfznHVFl8mpxEo0FU-200" vertex="1">
          <mxGeometry x="178" width="62" height="17" as="geometry">
            <mxRectangle width="62" height="17" as="alternateBounds" />
          </mxGeometry>
        </mxCell>
        <mxCell id="oJPnfznHVFl8mpxEo0FU-205" value="社会经济" style="shape=partialRectangle;html=1;whiteSpace=wrap;connectable=1;strokeColor=#E1D5E7;overflow=hidden;fillColor=#FFF2CC;top=0;left=0;bottom=0;right=0;pointerEvents=1;swimlaneFillColor=none;fontSize=11;movable=1;resizable=1;rotatable=1;deletable=1;editable=1;locked=0;opacity=50;" parent="oJPnfznHVFl8mpxEo0FU-200" vertex="1">
          <mxGeometry x="240" width="60" height="17" as="geometry">
            <mxRectangle width="60" height="17" as="alternateBounds" />
          </mxGeometry>
        </mxCell>
        <mxCell id="oJPnfznHVFl8mpxEo0FU-206" value="" style="shape=tableRow;horizontal=0;startSize=0;swimlaneHead=0;swimlaneBody=0;strokeColor=#E1D5E7;top=0;left=0;bottom=0;right=0;collapsible=0;dropTarget=0;fillColor=#FFF2CC;points=[[0,0.5],[1,0.5]];portConstraint=eastwest;swimlaneFillColor=none;fontSize=11;movable=1;resizable=1;rotatable=1;deletable=1;editable=1;locked=0;connectable=1;opacity=50;" parent="oJPnfznHVFl8mpxEo0FU-199" vertex="1">
          <mxGeometry y="47" width="300" height="27" as="geometry" />
        </mxCell>
        <mxCell id="oJPnfznHVFl8mpxEo0FU-207" value="实验1" style="shape=partialRectangle;html=1;whiteSpace=wrap;connectable=1;strokeColor=#E1D5E7;overflow=hidden;fillColor=#FFF2CC;top=0;left=0;bottom=0;right=0;pointerEvents=1;swimlaneFillColor=none;fontSize=11;movable=1;resizable=1;rotatable=1;deletable=1;editable=1;locked=0;opacity=50;" parent="oJPnfznHVFl8mpxEo0FU-206" vertex="1">
          <mxGeometry width="59" height="27" as="geometry">
            <mxRectangle width="59" height="27" as="alternateBounds" />
          </mxGeometry>
        </mxCell>
        <mxCell id="oJPnfznHVFl8mpxEo0FU-208" value="-" style="shape=partialRectangle;html=1;whiteSpace=wrap;connectable=1;strokeColor=#E1D5E7;overflow=hidden;fillColor=#FFF2CC;top=0;left=0;bottom=0;right=0;pointerEvents=1;swimlaneFillColor=none;fontSize=11;movable=1;resizable=1;rotatable=1;deletable=1;editable=1;locked=0;opacity=50;" parent="oJPnfznHVFl8mpxEo0FU-206" vertex="1">
          <mxGeometry x="59" width="61" height="27" as="geometry">
            <mxRectangle width="61" height="27" as="alternateBounds" />
          </mxGeometry>
        </mxCell>
        <mxCell id="oJPnfznHVFl8mpxEo0FU-209" value="-" style="shape=partialRectangle;html=1;whiteSpace=wrap;connectable=1;strokeColor=#E1D5E7;overflow=hidden;fillColor=#FFF2CC;top=0;left=0;bottom=0;right=0;pointerEvents=1;swimlaneFillColor=none;fontSize=11;movable=1;resizable=1;rotatable=1;deletable=1;editable=1;locked=0;opacity=50;" parent="oJPnfznHVFl8mpxEo0FU-206" vertex="1">
          <mxGeometry x="120" width="58" height="27" as="geometry">
            <mxRectangle width="58" height="27" as="alternateBounds" />
          </mxGeometry>
        </mxCell>
        <mxCell id="oJPnfznHVFl8mpxEo0FU-210" value="-" style="shape=partialRectangle;html=1;whiteSpace=wrap;connectable=1;strokeColor=#E1D5E7;overflow=hidden;fillColor=#FFF2CC;top=0;left=0;bottom=0;right=0;pointerEvents=1;swimlaneFillColor=none;fontSize=11;movable=1;resizable=1;rotatable=1;deletable=1;editable=1;locked=0;opacity=50;" parent="oJPnfznHVFl8mpxEo0FU-206" vertex="1">
          <mxGeometry x="178" width="62" height="27" as="geometry">
            <mxRectangle width="62" height="27" as="alternateBounds" />
          </mxGeometry>
        </mxCell>
        <mxCell id="oJPnfznHVFl8mpxEo0FU-211" value="-" style="shape=partialRectangle;html=1;whiteSpace=wrap;connectable=1;strokeColor=#E1D5E7;overflow=hidden;fillColor=#FFF2CC;top=0;left=0;bottom=0;right=0;pointerEvents=1;swimlaneFillColor=none;fontSize=11;movable=1;resizable=1;rotatable=1;deletable=1;editable=1;locked=0;opacity=50;" parent="oJPnfznHVFl8mpxEo0FU-206" vertex="1">
          <mxGeometry x="240" width="60" height="27" as="geometry">
            <mxRectangle width="60" height="27" as="alternateBounds" />
          </mxGeometry>
        </mxCell>
        <mxCell id="oJPnfznHVFl8mpxEo0FU-212" value="" style="shape=tableRow;horizontal=0;startSize=0;swimlaneHead=0;swimlaneBody=0;strokeColor=#E1D5E7;top=0;left=0;bottom=0;right=0;collapsible=0;dropTarget=0;fillColor=#FFF2CC;points=[[0,0.5],[1,0.5]];portConstraint=eastwest;swimlaneFillColor=none;fontSize=11;movable=1;resizable=1;rotatable=1;deletable=1;editable=1;locked=0;connectable=1;opacity=50;" parent="oJPnfznHVFl8mpxEo0FU-199" vertex="1">
          <mxGeometry y="74" width="300" height="27" as="geometry" />
        </mxCell>
        <mxCell id="oJPnfznHVFl8mpxEo0FU-213" value="实验2" style="shape=partialRectangle;html=1;whiteSpace=wrap;connectable=1;strokeColor=#E1D5E7;overflow=hidden;fillColor=#FFF2CC;top=0;left=0;bottom=0;right=0;pointerEvents=1;swimlaneFillColor=none;fontSize=11;movable=1;resizable=1;rotatable=1;deletable=1;editable=1;locked=0;opacity=50;" parent="oJPnfznHVFl8mpxEo0FU-212" vertex="1">
          <mxGeometry width="59" height="27" as="geometry">
            <mxRectangle width="59" height="27" as="alternateBounds" />
          </mxGeometry>
        </mxCell>
        <mxCell id="oJPnfznHVFl8mpxEo0FU-214" value="√" style="shape=partialRectangle;html=1;whiteSpace=wrap;connectable=1;strokeColor=#E1D5E7;overflow=hidden;fillColor=#FFF2CC;top=0;left=0;bottom=0;right=0;pointerEvents=1;swimlaneFillColor=none;fontSize=11;movable=1;resizable=1;rotatable=1;deletable=1;editable=1;locked=0;opacity=50;" parent="oJPnfznHVFl8mpxEo0FU-212" vertex="1">
          <mxGeometry x="59" width="61" height="27" as="geometry">
            <mxRectangle width="61" height="27" as="alternateBounds" />
          </mxGeometry>
        </mxCell>
        <mxCell id="oJPnfznHVFl8mpxEo0FU-215" value="-" style="shape=partialRectangle;html=1;whiteSpace=wrap;connectable=1;strokeColor=#E1D5E7;overflow=hidden;fillColor=#FFF2CC;top=0;left=0;bottom=0;right=0;pointerEvents=1;swimlaneFillColor=none;fontSize=11;movable=1;resizable=1;rotatable=1;deletable=1;editable=1;locked=0;opacity=50;" parent="oJPnfznHVFl8mpxEo0FU-212" vertex="1">
          <mxGeometry x="120" width="58" height="27" as="geometry">
            <mxRectangle width="58" height="27" as="alternateBounds" />
          </mxGeometry>
        </mxCell>
        <mxCell id="oJPnfznHVFl8mpxEo0FU-216" value="-" style="shape=partialRectangle;html=1;whiteSpace=wrap;connectable=1;strokeColor=#E1D5E7;overflow=hidden;fillColor=#FFF2CC;top=0;left=0;bottom=0;right=0;pointerEvents=1;swimlaneFillColor=none;fontSize=11;movable=1;resizable=1;rotatable=1;deletable=1;editable=1;locked=0;opacity=50;" parent="oJPnfznHVFl8mpxEo0FU-212" vertex="1">
          <mxGeometry x="178" width="62" height="27" as="geometry">
            <mxRectangle width="62" height="27" as="alternateBounds" />
          </mxGeometry>
        </mxCell>
        <mxCell id="oJPnfznHVFl8mpxEo0FU-217" value="-" style="shape=partialRectangle;html=1;whiteSpace=wrap;connectable=1;strokeColor=#E1D5E7;overflow=hidden;fillColor=#FFF2CC;top=0;left=0;bottom=0;right=0;pointerEvents=1;swimlaneFillColor=none;fontSize=11;movable=1;resizable=1;rotatable=1;deletable=1;editable=1;locked=0;opacity=50;" parent="oJPnfznHVFl8mpxEo0FU-212" vertex="1">
          <mxGeometry x="240" width="60" height="27" as="geometry">
            <mxRectangle width="60" height="27" as="alternateBounds" />
          </mxGeometry>
        </mxCell>
        <mxCell id="oJPnfznHVFl8mpxEo0FU-218" value="" style="shape=tableRow;horizontal=0;startSize=0;swimlaneHead=0;swimlaneBody=0;strokeColor=#E1D5E7;top=0;left=0;bottom=0;right=0;collapsible=0;dropTarget=0;fillColor=#FFF2CC;points=[[0,0.5],[1,0.5]];portConstraint=eastwest;swimlaneFillColor=none;fontSize=11;movable=1;resizable=1;rotatable=1;deletable=1;editable=1;locked=0;connectable=1;opacity=50;" parent="oJPnfznHVFl8mpxEo0FU-199" vertex="1">
          <mxGeometry y="101" width="300" height="27" as="geometry" />
        </mxCell>
        <mxCell id="oJPnfznHVFl8mpxEo0FU-219" value="实验3" style="shape=partialRectangle;html=1;whiteSpace=wrap;connectable=1;strokeColor=#E1D5E7;overflow=hidden;fillColor=#FFF2CC;top=0;left=0;bottom=0;right=0;pointerEvents=1;swimlaneFillColor=none;fontSize=11;movable=1;resizable=1;rotatable=1;deletable=1;editable=1;locked=0;opacity=50;" parent="oJPnfznHVFl8mpxEo0FU-218" vertex="1">
          <mxGeometry width="59" height="27" as="geometry">
            <mxRectangle width="59" height="27" as="alternateBounds" />
          </mxGeometry>
        </mxCell>
        <mxCell id="oJPnfznHVFl8mpxEo0FU-220" value="-" style="shape=partialRectangle;html=1;whiteSpace=wrap;connectable=1;strokeColor=#E1D5E7;overflow=hidden;fillColor=#FFF2CC;top=0;left=0;bottom=0;right=0;pointerEvents=1;swimlaneFillColor=none;fontSize=11;movable=1;resizable=1;rotatable=1;deletable=1;editable=1;locked=0;opacity=50;" parent="oJPnfznHVFl8mpxEo0FU-218" vertex="1">
          <mxGeometry x="59" width="61" height="27" as="geometry">
            <mxRectangle width="61" height="27" as="alternateBounds" />
          </mxGeometry>
        </mxCell>
        <mxCell id="oJPnfznHVFl8mpxEo0FU-221" value="√" style="shape=partialRectangle;html=1;whiteSpace=wrap;connectable=1;strokeColor=#E1D5E7;overflow=hidden;fillColor=#FFF2CC;top=0;left=0;bottom=0;right=0;pointerEvents=1;swimlaneFillColor=none;fontSize=11;movable=1;resizable=1;rotatable=1;deletable=1;editable=1;locked=0;opacity=50;" parent="oJPnfznHVFl8mpxEo0FU-218" vertex="1">
          <mxGeometry x="120" width="58" height="27" as="geometry">
            <mxRectangle width="58" height="27" as="alternateBounds" />
          </mxGeometry>
        </mxCell>
        <mxCell id="oJPnfznHVFl8mpxEo0FU-222" value="-" style="shape=partialRectangle;html=1;whiteSpace=wrap;connectable=1;strokeColor=#E1D5E7;overflow=hidden;fillColor=#FFF2CC;top=0;left=0;bottom=0;right=0;pointerEvents=1;swimlaneFillColor=none;fontSize=11;movable=1;resizable=1;rotatable=1;deletable=1;editable=1;locked=0;opacity=50;" parent="oJPnfznHVFl8mpxEo0FU-218" vertex="1">
          <mxGeometry x="178" width="62" height="27" as="geometry">
            <mxRectangle width="62" height="27" as="alternateBounds" />
          </mxGeometry>
        </mxCell>
        <mxCell id="oJPnfznHVFl8mpxEo0FU-223" value="-" style="shape=partialRectangle;html=1;whiteSpace=wrap;connectable=1;strokeColor=#E1D5E7;overflow=hidden;fillColor=#FFF2CC;top=0;left=0;bottom=0;right=0;pointerEvents=1;swimlaneFillColor=none;fontSize=11;movable=1;resizable=1;rotatable=1;deletable=1;editable=1;locked=0;opacity=50;" parent="oJPnfznHVFl8mpxEo0FU-218" vertex="1">
          <mxGeometry x="240" width="60" height="27" as="geometry">
            <mxRectangle width="60" height="27" as="alternateBounds" />
          </mxGeometry>
        </mxCell>
        <mxCell id="oJPnfznHVFl8mpxEo0FU-224" value="" style="shape=tableRow;horizontal=0;startSize=0;swimlaneHead=0;swimlaneBody=0;strokeColor=#E1D5E7;top=0;left=0;bottom=0;right=0;collapsible=0;dropTarget=0;fillColor=#FFF2CC;points=[[0,0.5],[1,0.5]];portConstraint=eastwest;swimlaneFillColor=none;fontSize=11;movable=1;resizable=1;rotatable=1;deletable=1;editable=1;locked=0;connectable=1;opacity=50;" parent="oJPnfznHVFl8mpxEo0FU-199" vertex="1">
          <mxGeometry y="128" width="300" height="26" as="geometry" />
        </mxCell>
        <mxCell id="oJPnfznHVFl8mpxEo0FU-225" value="实验4" style="shape=partialRectangle;html=1;whiteSpace=wrap;connectable=1;strokeColor=#E1D5E7;overflow=hidden;fillColor=#FFF2CC;top=0;left=0;bottom=0;right=0;pointerEvents=1;swimlaneFillColor=none;fontSize=11;movable=1;resizable=1;rotatable=1;deletable=1;editable=1;locked=0;opacity=50;" parent="oJPnfznHVFl8mpxEo0FU-224" vertex="1">
          <mxGeometry width="59" height="26" as="geometry">
            <mxRectangle width="59" height="26" as="alternateBounds" />
          </mxGeometry>
        </mxCell>
        <mxCell id="oJPnfznHVFl8mpxEo0FU-226" value="-" style="shape=partialRectangle;html=1;whiteSpace=wrap;connectable=1;strokeColor=#E1D5E7;overflow=hidden;fillColor=#FFF2CC;top=0;left=0;bottom=0;right=0;pointerEvents=1;swimlaneFillColor=none;fontSize=11;movable=1;resizable=1;rotatable=1;deletable=1;editable=1;locked=0;opacity=50;" parent="oJPnfznHVFl8mpxEo0FU-224" vertex="1">
          <mxGeometry x="59" width="61" height="26" as="geometry">
            <mxRectangle width="61" height="26" as="alternateBounds" />
          </mxGeometry>
        </mxCell>
        <mxCell id="oJPnfznHVFl8mpxEo0FU-227" value="-" style="shape=partialRectangle;html=1;whiteSpace=wrap;connectable=1;strokeColor=#E1D5E7;overflow=hidden;fillColor=#FFF2CC;top=0;left=0;bottom=0;right=0;pointerEvents=1;swimlaneFillColor=none;fontSize=11;movable=1;resizable=1;rotatable=1;deletable=1;editable=1;locked=0;opacity=50;" parent="oJPnfznHVFl8mpxEo0FU-224" vertex="1">
          <mxGeometry x="120" width="58" height="26" as="geometry">
            <mxRectangle width="58" height="26" as="alternateBounds" />
          </mxGeometry>
        </mxCell>
        <mxCell id="oJPnfznHVFl8mpxEo0FU-228" value="√" style="shape=partialRectangle;html=1;whiteSpace=wrap;connectable=1;strokeColor=#E1D5E7;overflow=hidden;fillColor=#FFF2CC;top=0;left=0;bottom=0;right=0;pointerEvents=1;swimlaneFillColor=none;fontSize=11;movable=1;resizable=1;rotatable=1;deletable=1;editable=1;locked=0;opacity=50;" parent="oJPnfznHVFl8mpxEo0FU-224" vertex="1">
          <mxGeometry x="178" width="62" height="26" as="geometry">
            <mxRectangle width="62" height="26" as="alternateBounds" />
          </mxGeometry>
        </mxCell>
        <mxCell id="oJPnfznHVFl8mpxEo0FU-229" value="-" style="shape=partialRectangle;html=1;whiteSpace=wrap;connectable=1;strokeColor=#E1D5E7;overflow=hidden;fillColor=#FFF2CC;top=0;left=0;bottom=0;right=0;pointerEvents=1;swimlaneFillColor=none;fontSize=11;movable=1;resizable=1;rotatable=1;deletable=1;editable=1;locked=0;opacity=50;" parent="oJPnfznHVFl8mpxEo0FU-224" vertex="1">
          <mxGeometry x="240" width="60" height="26" as="geometry">
            <mxRectangle width="60" height="26" as="alternateBounds" />
          </mxGeometry>
        </mxCell>
        <mxCell id="oJPnfznHVFl8mpxEo0FU-230" value="" style="shape=tableRow;horizontal=0;startSize=0;swimlaneHead=0;swimlaneBody=0;strokeColor=#E1D5E7;top=0;left=0;bottom=0;right=0;collapsible=0;dropTarget=0;fillColor=#FFF2CC;points=[[0,0.5],[1,0.5]];portConstraint=eastwest;swimlaneFillColor=none;fontSize=11;movable=1;resizable=1;rotatable=1;deletable=1;editable=1;locked=0;connectable=1;opacity=50;" parent="oJPnfznHVFl8mpxEo0FU-199" vertex="1">
          <mxGeometry y="154" width="300" height="26" as="geometry" />
        </mxCell>
        <mxCell id="oJPnfznHVFl8mpxEo0FU-231" value="实验5" style="shape=partialRectangle;html=1;whiteSpace=wrap;connectable=1;strokeColor=#E1D5E7;overflow=hidden;fillColor=#FFF2CC;top=0;left=0;bottom=0;right=0;pointerEvents=1;swimlaneFillColor=none;fontSize=11;movable=1;resizable=1;rotatable=1;deletable=1;editable=1;locked=0;opacity=50;" parent="oJPnfznHVFl8mpxEo0FU-230" vertex="1">
          <mxGeometry width="59" height="26" as="geometry">
            <mxRectangle width="59" height="26" as="alternateBounds" />
          </mxGeometry>
        </mxCell>
        <mxCell id="oJPnfznHVFl8mpxEo0FU-232" value="-" style="shape=partialRectangle;html=1;whiteSpace=wrap;connectable=1;strokeColor=#E1D5E7;overflow=hidden;fillColor=#FFF2CC;top=0;left=0;bottom=0;right=0;pointerEvents=1;swimlaneFillColor=none;fontSize=11;movable=1;resizable=1;rotatable=1;deletable=1;editable=1;locked=0;opacity=50;" parent="oJPnfznHVFl8mpxEo0FU-230" vertex="1">
          <mxGeometry x="59" width="61" height="26" as="geometry">
            <mxRectangle width="61" height="26" as="alternateBounds" />
          </mxGeometry>
        </mxCell>
        <mxCell id="oJPnfznHVFl8mpxEo0FU-233" value="-" style="shape=partialRectangle;html=1;whiteSpace=wrap;connectable=1;strokeColor=#E1D5E7;overflow=hidden;fillColor=#FFF2CC;top=0;left=0;bottom=0;right=0;pointerEvents=1;swimlaneFillColor=none;fontSize=11;movable=1;resizable=1;rotatable=1;deletable=1;editable=1;locked=0;opacity=50;" parent="oJPnfznHVFl8mpxEo0FU-230" vertex="1">
          <mxGeometry x="120" width="58" height="26" as="geometry">
            <mxRectangle width="58" height="26" as="alternateBounds" />
          </mxGeometry>
        </mxCell>
        <mxCell id="oJPnfznHVFl8mpxEo0FU-234" value="-" style="shape=partialRectangle;html=1;whiteSpace=wrap;connectable=1;strokeColor=#E1D5E7;overflow=hidden;fillColor=#FFF2CC;top=0;left=0;bottom=0;right=0;pointerEvents=1;swimlaneFillColor=none;fontSize=11;movable=1;resizable=1;rotatable=1;deletable=1;editable=1;locked=0;opacity=50;" parent="oJPnfznHVFl8mpxEo0FU-230" vertex="1">
          <mxGeometry x="178" width="62" height="26" as="geometry">
            <mxRectangle width="62" height="26" as="alternateBounds" />
          </mxGeometry>
        </mxCell>
        <mxCell id="oJPnfznHVFl8mpxEo0FU-235" value="√" style="shape=partialRectangle;html=1;whiteSpace=wrap;connectable=1;strokeColor=#E1D5E7;overflow=hidden;fillColor=#FFF2CC;top=0;left=0;bottom=0;right=0;pointerEvents=1;swimlaneFillColor=none;fontSize=11;movable=1;resizable=1;rotatable=1;deletable=1;editable=1;locked=0;opacity=50;" parent="oJPnfznHVFl8mpxEo0FU-230" vertex="1">
          <mxGeometry x="240" width="60" height="26" as="geometry">
            <mxRectangle width="60" height="26" as="alternateBounds" />
          </mxGeometry>
        </mxCell>
        <mxCell id="oJPnfznHVFl8mpxEo0FU-247" value="注：“-”表示输入为1900-2020年；“√”表示输入控制为1900年" style="text;html=1;align=center;verticalAlign=middle;whiteSpace=wrap;rounded=0;" parent="WIyWlLk6GJQsqaUBKTNV-1" vertex="1">
          <mxGeometry x="437" y="1867" width="330" height="30" as="geometry" />
        </mxCell>
        <mxCell id="oJPnfznHVFl8mpxEo0FU-250" value="" style="rounded=1;whiteSpace=wrap;html=1;dashed=1;movable=1;resizable=1;rotatable=1;deletable=1;editable=1;locked=0;connectable=1;fillColor=#b0e3e6;strokeColor=#0e8088;opacity=50;strokeWidth=2;" parent="WIyWlLk6GJQsqaUBKTNV-1" vertex="1">
          <mxGeometry x="402" y="1310" width="386" height="310" as="geometry" />
        </mxCell>
        <mxCell id="oJPnfznHVFl8mpxEo0FU-253" value="Child 1" style="whiteSpace=wrap;html=1;fillColor=#b0e3e6;strokeColor=#0e8088;strokeWidth=2;opacity=70;rounded=1;" parent="WIyWlLk6GJQsqaUBKTNV-1" vertex="1">
          <mxGeometry x="1030" y="1340" width="100" height="40" as="geometry" />
        </mxCell>
        <mxCell id="oJPnfznHVFl8mpxEo0FU-254" value="" style="edgeStyle=elbowEdgeStyle;elbow=horizontal;html=1;rounded=1;curved=0;sourcePerimeterSpacing=0;targetPerimeterSpacing=0;startSize=6;endSize=6;strokeColor=#B3B3B3;strokeWidth=2;" parent="WIyWlLk6GJQsqaUBKTNV-1" target="oJPnfznHVFl8mpxEo0FU-253" edge="1">
          <mxGeometry relative="1" as="geometry">
            <mxPoint x="980" y="1400" as="sourcePoint" />
          </mxGeometry>
        </mxCell>
        <mxCell id="oJPnfznHVFl8mpxEo0FU-255" value="Child 2" style="whiteSpace=wrap;html=1;fillColor=#b0e3e6;strokeColor=#0e8088;strokeWidth=2;opacity=70;rounded=1;" parent="WIyWlLk6GJQsqaUBKTNV-1" vertex="1">
          <mxGeometry x="1030" y="1420" width="100" height="40" as="geometry" />
        </mxCell>
        <mxCell id="oJPnfznHVFl8mpxEo0FU-256" value="" style="edgeStyle=elbowEdgeStyle;elbow=horizontal;html=1;rounded=1;curved=0;sourcePerimeterSpacing=0;targetPerimeterSpacing=0;startSize=6;endSize=6;strokeColor=#B3B3B3;strokeWidth=2;" parent="WIyWlLk6GJQsqaUBKTNV-1" target="oJPnfznHVFl8mpxEo0FU-255" edge="1">
          <mxGeometry relative="1" as="geometry">
            <mxPoint x="980" y="1400" as="sourcePoint" />
          </mxGeometry>
        </mxCell>
        <mxCell id="oJPnfznHVFl8mpxEo0FU-257" value="&lt;div&gt;&lt;font style=&quot;font-size: 17px;&quot;&gt;是否满足要求&lt;/font&gt;&lt;/div&gt;" style="strokeWidth=2;html=1;shape=mxgraph.flowchart.decision;whiteSpace=wrap;fillColor=#d0cee2;strokeColor=#56517e;" parent="WIyWlLk6GJQsqaUBKTNV-1" vertex="1">
          <mxGeometry x="830" y="1360" width="150" height="80" as="geometry" />
        </mxCell>
        <mxCell id="oJPnfznHVFl8mpxEo0FU-259" value="计算" style="whiteSpace=wrap;html=1;fillColor=#e1d5e7;strokeColor=#9673a6;strokeWidth=2;opacity=70;rounded=1;" parent="WIyWlLk6GJQsqaUBKTNV-1" vertex="1">
          <mxGeometry x="970" y="1600" width="100" height="40" as="geometry" />
        </mxCell>
        <mxCell id="oJPnfznHVFl8mpxEo0FU-260" value="&lt;font style=&quot;font-size: 17px;&quot;&gt;观测数据&lt;/font&gt;" style="strokeWidth=2;html=1;shape=mxgraph.flowchart.database;whiteSpace=wrap;fillColor=#b0e3e6;strokeColor=#0e8088;verticalAlign=bottom;" parent="WIyWlLk6GJQsqaUBKTNV-1" vertex="1">
          <mxGeometry x="430" y="1470" width="97" height="40" as="geometry" />
        </mxCell>
        <mxCell id="oJPnfznHVFl8mpxEo0FU-261" value="&lt;font style=&quot;font-size: 17px;&quot;&gt;人类活动影响对&lt;/font&gt;&lt;div&gt;&lt;font style=&quot;font-size: 17px;&quot;&gt;碳通量的贡献&lt;/font&gt;&lt;/div&gt;" style="whiteSpace=wrap;html=1;fillColor=#e1d5e7;strokeColor=#9673a6;strokeWidth=2;opacity=70;rounded=0;" parent="WIyWlLk6GJQsqaUBKTNV-1" vertex="1">
          <mxGeometry x="860" y="1754" width="180" height="50" as="geometry" />
        </mxCell>
        <mxCell id="oJPnfznHVFl8mpxEo0FU-262" value="自然环境变化&lt;span style=&quot;background-color: transparent; color: light-dark(rgb(0, 0, 0), rgb(255, 255, 255));&quot;&gt;对&lt;/span&gt;&lt;div&gt;&lt;span style=&quot;background-color: transparent; color: light-dark(rgb(0, 0, 0), rgb(255, 255, 255));&quot;&gt;碳通量的贡献&lt;/span&gt;&lt;/div&gt;" style="whiteSpace=wrap;html=1;fillColor=#e1d5e7;strokeColor=#9673a6;strokeWidth=2;opacity=70;rounded=0;" parent="WIyWlLk6GJQsqaUBKTNV-1" vertex="1">
          <mxGeometry x="1260" y="1370" width="100" height="40" as="geometry" />
        </mxCell>
        <mxCell id="oJPnfznHVFl8mpxEo0FU-263" value="&lt;font style=&quot;font-size: 17px;&quot;&gt;自然环境变化&lt;span style=&quot;color: light-dark(rgb(0, 0, 0), rgb(255, 255, 255)); background-color: transparent;&quot;&gt;对&lt;/span&gt;&lt;/font&gt;&lt;div&gt;&lt;span style=&quot;background-color: transparent; color: light-dark(rgb(0, 0, 0), rgb(255, 255, 255));&quot;&gt;&lt;font style=&quot;font-size: 17px;&quot;&gt;碳通量的贡献&lt;/font&gt;&lt;/span&gt;&lt;/div&gt;" style="whiteSpace=wrap;html=1;fillColor=#e1d5e7;strokeColor=#9673a6;strokeWidth=2;opacity=70;rounded=0;" parent="WIyWlLk6GJQsqaUBKTNV-1" vertex="1">
          <mxGeometry x="860" y="1824" width="180" height="50" as="geometry" />
        </mxCell>
        <mxCell id="oJPnfznHVFl8mpxEo0FU-270" value="" style="strokeWidth=2;html=1;shape=mxgraph.flowchart.annotation_1;align=left;pointerEvents=1;fillColor=#e1d5e7;strokeColor=#9673a6;dashed=1;" parent="WIyWlLk6GJQsqaUBKTNV-1" vertex="1">
          <mxGeometry x="840" y="1669" width="20" height="220" as="geometry" />
        </mxCell>
        <mxCell id="oJPnfznHVFl8mpxEo0FU-271" value="" style="shape=singleArrow;whiteSpace=wrap;html=1;fillColor=#e1d5e7;strokeColor=#9673a6;arrowWidth=0.4444444444444444;arrowSize=0.5666666666666667;strokeWidth=2;" parent="WIyWlLk6GJQsqaUBKTNV-1" vertex="1">
          <mxGeometry x="800" y="1750" width="30" height="54" as="geometry" />
        </mxCell>
        <mxCell id="nLHUTXYO1wQgojI6cauG-0" value="&lt;font style=&quot;font-size: 17px;&quot;&gt;平衡态模拟&lt;/font&gt;" style="whiteSpace=wrap;html=1;fillColor=#b0e3e6;strokeColor=#0e8088;strokeWidth=2;opacity=70;rounded=1;" vertex="1" parent="WIyWlLk6GJQsqaUBKTNV-1">
          <mxGeometry x="430" y="1350" width="100" height="40" as="geometry" />
        </mxCell>
        <mxCell id="nLHUTXYO1wQgojI6cauG-1" value="&lt;font style=&quot;font-size: 17px;&quot;&gt;过渡态模拟&lt;/font&gt;" style="whiteSpace=wrap;html=1;fillColor=#b0e3e6;strokeColor=#0e8088;strokeWidth=2;opacity=70;rounded=1;" vertex="1" parent="WIyWlLk6GJQsqaUBKTNV-1">
          <mxGeometry x="430" y="1400" width="100" height="40" as="geometry" />
        </mxCell>
      </root>
    </mxGraphModel>
  </diagram>
</mxfile>
